<svg
  xmlns="http://www.w3.org/2000/svg"
  xmlns:xlink="http://www.w3.org/1999/xlink"
  viewBox="0 0 16 16"
  fill="#3b82f6"
>
  <defs>
    <circle id="path-1" cx="8" cy="8" r="8"></circle>
  </defs>
  <mask id="mask-2">
    <use xlink:href="#path-1"></use>
  </mask>
  <circle fill-opacity=".4" cx="8" cy="8" r="8"></circle>
  <g mask="url(#mask-2)">
    <path
      d="M18.5 16h-24V6C-4 6-4 5-2.5 5s1.5 1 3 1 1.5-1 3-1 1.5 1 3 1 1.5-1 3-1 1.5 1 3 1 1.5-1 3-1 1.5 1 3 1v10Z"
      fill-opacity=".4"
    >
      <animateTransform
        attributeName="transform"
        type="translate"
        values="0,0; 6,0"
        dur="1s"
        repeatCount="indefinite"
      ></animateTransform>
    </path>
    <path
      d="M17 16H-7V8c1.5 0 1.5-1 3-1s1.5 1 3 1S.5 7 2 7s1.5 1 3 1 1.5-1 3-1 1.5 1 3 1 1.5-1 3-1 1.5 1 3 1v8Z"
      fill-opacity=".4"
    >
      <animateTransform
        attributeName="transform"
        type="translate"
        values="0,0; 6,0"
        dur="2s"
        repeatCount="indefinite"
      ></animateTransform>
    </path>
    <path d="M18 16H-6v-6c1.5 0 1.5-1 3-1s1.5 1 3 1 1.5-1 3-1 1.5 1 3 1 1.5-1 3-1 1.5 1 3 1 1.5-1 3-1 1.5 1 3 1v6Z">
      <animateTransform
        attributeName="transform"
        type="translate"
        values="0,0; 6,0"
        dur="3s"
        repeatCount="indefinite"
      ></animateTransform>
    </path>
  </g>
  <path
    d="M8 0a8 8 0 1 1 0 16A8 8 0 0 1 8 0Zm0 1a7 7 0 1 0 0 14A7 7 0 0 0 8 1Z"
    fill="#ffffff"
    fill-opacity="0.15"
  />
</svg>
